<mxfile host="app.diagrams.net" modified="2023-12-21T20:18:17.064Z" agent="Mozilla/5.0 (Windows NT 10.0; Win64; x64) AppleWebKit/537.36 (KHTML, like Gecko) Chrome/120.0.0.0 Safari/537.36" etag="Mclrb4_WS-un_ZFPK3cP" version="21.3.4" type="device">
  <diagram name="Page-1" id="7Yl1j7hWzFzfxB7Ugltn">
    <mxGraphModel dx="1400" dy="772" grid="1" gridSize="10" guides="1" tooltips="1" connect="1" arrows="1" fold="1" page="1" pageScale="1" pageWidth="827" pageHeight="1169" math="0" shadow="0">
      <root>
        <mxCell id="0" />
        <mxCell id="1" parent="0" />
        <mxCell id="2naeRcM0L0gtfPMSDATA-8" value="name" style="rounded=1;whiteSpace=wrap;html=1;fontFamily=JetBrains Mono;fontStyle=0;fontSource=https%3A%2F%2Ffonts.googleapis.com%2Fcss%3Ffamily%3DJetBrains%2BMono;" vertex="1" parent="1">
          <mxGeometry x="100" y="150" width="100" height="40" as="geometry" />
        </mxCell>
        <mxCell id="2naeRcM0L0gtfPMSDATA-9" value=" number" style="rounded=1;whiteSpace=wrap;html=1;fontFamily=JetBrains Mono;fontStyle=0;fontSource=https%3A%2F%2Ffonts.googleapis.com%2Fcss%3Ffamily%3DJetBrains%2BMono;" vertex="1" parent="1">
          <mxGeometry x="230" y="150" width="100" height="40" as="geometry" />
        </mxCell>
        <mxCell id="2naeRcM0L0gtfPMSDATA-11" value=" cost" style="rounded=1;whiteSpace=wrap;html=1;fontFamily=JetBrains Mono;fontStyle=0;fontSource=https%3A%2F%2Ffonts.googleapis.com%2Fcss%3Ffamily%3DJetBrains%2BMono;" vertex="1" parent="1">
          <mxGeometry x="364" y="150" width="100" height="40" as="geometry" />
        </mxCell>
        <mxCell id="2naeRcM0L0gtfPMSDATA-13" value=" existingParts" style="rounded=1;whiteSpace=wrap;html=1;fontFamily=JetBrains Mono;fontStyle=0;fontSource=https%3A%2F%2Ffonts.googleapis.com%2Fcss%3Ffamily%3DJetBrains%2BMono;" vertex="1" parent="1">
          <mxGeometry x="500" y="150" width="100" height="40" as="geometry" />
        </mxCell>
        <mxCell id="2naeRcM0L0gtfPMSDATA-17" value=" various methods" style="rounded=1;whiteSpace=wrap;html=1;fontFamily=JetBrains Mono;fontStyle=0;fontSource=https%3A%2F%2Ffonts.googleapis.com%2Fcss%3Ffamily%3DJetBrains%2BMono;" vertex="1" parent="1">
          <mxGeometry x="640" y="150" width="100" height="40" as="geometry" />
        </mxCell>
        <mxCell id="2naeRcM0L0gtfPMSDATA-26" style="edgeStyle=orthogonalEdgeStyle;rounded=0;orthogonalLoop=1;jettySize=auto;html=1;entryX=0.5;entryY=0;entryDx=0;entryDy=0;" edge="1" parent="1" source="2naeRcM0L0gtfPMSDATA-18" target="2naeRcM0L0gtfPMSDATA-8">
          <mxGeometry relative="1" as="geometry" />
        </mxCell>
        <mxCell id="2naeRcM0L0gtfPMSDATA-27" style="edgeStyle=orthogonalEdgeStyle;rounded=0;orthogonalLoop=1;jettySize=auto;html=1;" edge="1" parent="1" source="2naeRcM0L0gtfPMSDATA-18" target="2naeRcM0L0gtfPMSDATA-9">
          <mxGeometry relative="1" as="geometry" />
        </mxCell>
        <mxCell id="2naeRcM0L0gtfPMSDATA-28" style="edgeStyle=orthogonalEdgeStyle;rounded=0;orthogonalLoop=1;jettySize=auto;html=1;entryX=0.5;entryY=0;entryDx=0;entryDy=0;" edge="1" parent="1" source="2naeRcM0L0gtfPMSDATA-18" target="2naeRcM0L0gtfPMSDATA-11">
          <mxGeometry relative="1" as="geometry" />
        </mxCell>
        <mxCell id="2naeRcM0L0gtfPMSDATA-29" style="edgeStyle=orthogonalEdgeStyle;rounded=0;orthogonalLoop=1;jettySize=auto;html=1;entryX=0.5;entryY=0;entryDx=0;entryDy=0;" edge="1" parent="1" source="2naeRcM0L0gtfPMSDATA-18" target="2naeRcM0L0gtfPMSDATA-13">
          <mxGeometry relative="1" as="geometry" />
        </mxCell>
        <mxCell id="2naeRcM0L0gtfPMSDATA-30" style="edgeStyle=orthogonalEdgeStyle;rounded=0;orthogonalLoop=1;jettySize=auto;html=1;entryX=0.5;entryY=0;entryDx=0;entryDy=0;" edge="1" parent="1" source="2naeRcM0L0gtfPMSDATA-18" target="2naeRcM0L0gtfPMSDATA-17">
          <mxGeometry relative="1" as="geometry" />
        </mxCell>
        <mxCell id="2naeRcM0L0gtfPMSDATA-18" value="SparePart" style="shape=hexagon;perimeter=hexagonPerimeter2;whiteSpace=wrap;html=1;fixedSize=1;fontSize=14;fontFamily=JetBrains Mono;fontStyle=0;fontSource=https%3A%2F%2Ffonts.googleapis.com%2Fcss%3Ffamily%3DJetBrains%2BMono;verticalAlign=middle;" vertex="1" parent="1">
          <mxGeometry x="354" y="20" width="120" height="60" as="geometry" />
        </mxCell>
        <mxCell id="2naeRcM0L0gtfPMSDATA-46" value="name" style="rounded=1;whiteSpace=wrap;html=1;fontFamily=JetBrains Mono;fontStyle=0;fontSource=https%3A%2F%2Ffonts.googleapis.com%2Fcss%3Ffamily%3DJetBrains%2BMono;" vertex="1" parent="1">
          <mxGeometry x="40" y="390" width="100" height="40" as="geometry" />
        </mxCell>
        <mxCell id="2naeRcM0L0gtfPMSDATA-47" value=" code" style="rounded=1;whiteSpace=wrap;html=1;fontFamily=JetBrains Mono;fontStyle=0;fontSource=https%3A%2F%2Ffonts.googleapis.com%2Fcss%3Ffamily%3DJetBrains%2BMono;" vertex="1" parent="1">
          <mxGeometry x="170" y="390" width="100" height="40" as="geometry" />
        </mxCell>
        <mxCell id="2naeRcM0L0gtfPMSDATA-48" value=" address" style="rounded=1;whiteSpace=wrap;html=1;fontFamily=JetBrains Mono;fontStyle=0;fontSource=https%3A%2F%2Ffonts.googleapis.com%2Fcss%3Ffamily%3DJetBrains%2BMono;" vertex="1" parent="1">
          <mxGeometry x="300" y="390" width="100" height="40" as="geometry" />
        </mxCell>
        <mxCell id="2naeRcM0L0gtfPMSDATA-49" value="email" style="rounded=1;whiteSpace=wrap;html=1;fontFamily=JetBrains Mono;fontStyle=0;fontSource=https%3A%2F%2Ffonts.googleapis.com%2Fcss%3Ffamily%3DJetBrains%2BMono;" vertex="1" parent="1">
          <mxGeometry x="560" y="390" width="100" height="40" as="geometry" />
        </mxCell>
        <mxCell id="2naeRcM0L0gtfPMSDATA-50" value=" various methods" style="rounded=1;whiteSpace=wrap;html=1;fontFamily=JetBrains Mono;fontStyle=0;fontSource=https%3A%2F%2Ffonts.googleapis.com%2Fcss%3Ffamily%3DJetBrains%2BMono;" vertex="1" parent="1">
          <mxGeometry x="690" y="390" width="100" height="40" as="geometry" />
        </mxCell>
        <mxCell id="2naeRcM0L0gtfPMSDATA-51" style="edgeStyle=orthogonalEdgeStyle;rounded=0;orthogonalLoop=1;jettySize=auto;html=1;entryX=0.5;entryY=0;entryDx=0;entryDy=0;" edge="1" source="2naeRcM0L0gtfPMSDATA-56" target="2naeRcM0L0gtfPMSDATA-46" parent="1">
          <mxGeometry relative="1" as="geometry" />
        </mxCell>
        <mxCell id="2naeRcM0L0gtfPMSDATA-52" style="edgeStyle=orthogonalEdgeStyle;rounded=0;orthogonalLoop=1;jettySize=auto;html=1;" edge="1" source="2naeRcM0L0gtfPMSDATA-56" target="2naeRcM0L0gtfPMSDATA-47" parent="1">
          <mxGeometry relative="1" as="geometry" />
        </mxCell>
        <mxCell id="2naeRcM0L0gtfPMSDATA-53" style="edgeStyle=orthogonalEdgeStyle;rounded=0;orthogonalLoop=1;jettySize=auto;html=1;entryX=0.5;entryY=0;entryDx=0;entryDy=0;" edge="1" source="2naeRcM0L0gtfPMSDATA-56" target="2naeRcM0L0gtfPMSDATA-48" parent="1">
          <mxGeometry relative="1" as="geometry" />
        </mxCell>
        <mxCell id="2naeRcM0L0gtfPMSDATA-54" style="edgeStyle=orthogonalEdgeStyle;rounded=0;orthogonalLoop=1;jettySize=auto;html=1;entryX=0.5;entryY=0;entryDx=0;entryDy=0;" edge="1" source="2naeRcM0L0gtfPMSDATA-56" target="2naeRcM0L0gtfPMSDATA-49" parent="1">
          <mxGeometry relative="1" as="geometry" />
        </mxCell>
        <mxCell id="2naeRcM0L0gtfPMSDATA-55" style="edgeStyle=orthogonalEdgeStyle;rounded=0;orthogonalLoop=1;jettySize=auto;html=1;entryX=0.5;entryY=0;entryDx=0;entryDy=0;" edge="1" source="2naeRcM0L0gtfPMSDATA-56" target="2naeRcM0L0gtfPMSDATA-50" parent="1">
          <mxGeometry relative="1" as="geometry" />
        </mxCell>
        <mxCell id="2naeRcM0L0gtfPMSDATA-58" style="edgeStyle=orthogonalEdgeStyle;rounded=0;orthogonalLoop=1;jettySize=auto;html=1;entryX=0.5;entryY=0;entryDx=0;entryDy=0;" edge="1" parent="1" source="2naeRcM0L0gtfPMSDATA-56" target="2naeRcM0L0gtfPMSDATA-57">
          <mxGeometry relative="1" as="geometry" />
        </mxCell>
        <mxCell id="2naeRcM0L0gtfPMSDATA-56" value="Supplier" style="shape=hexagon;perimeter=hexagonPerimeter2;whiteSpace=wrap;html=1;fixedSize=1;fontSize=14;fontFamily=JetBrains Mono;fontStyle=0;fontSource=https%3A%2F%2Ffonts.googleapis.com%2Fcss%3Ffamily%3DJetBrains%2BMono;verticalAlign=middle;" vertex="1" parent="1">
          <mxGeometry x="354" y="260" width="120" height="60" as="geometry" />
        </mxCell>
        <mxCell id="2naeRcM0L0gtfPMSDATA-57" value=" telephone" style="rounded=1;whiteSpace=wrap;html=1;fontFamily=JetBrains Mono;fontStyle=0;fontSource=https%3A%2F%2Ffonts.googleapis.com%2Fcss%3Ffamily%3DJetBrains%2BMono;" vertex="1" parent="1">
          <mxGeometry x="430" y="390" width="100" height="40" as="geometry" />
        </mxCell>
      </root>
    </mxGraphModel>
  </diagram>
</mxfile>
